<?xml version="1.0" encoding="utf-8"?>
<svg width="127" height="56" xmlns="http://www.w3.org/2000/svg">

<style type="text/css">
  @namespace "http://www.w3.org/2000/svg";
  path, rect, polygon {
    stroke: black;
    stroke-width: 1;
  }

  path {
    fill: none;
  }

  rect, polygon {
    fill: #ddd;
  }

  text.nonterminal {
    font-family: "Myriad Pro";
    font-size: 12px;
  }

  text.terminal {
    font-family: "Letter Gothic Std";
    font-weight: bold;
    font-size: 12px;
  }
</style>

<polygon points=" 28 16  18 12  18 16   8 12   8 20  18 16  18 20"/>
<polygon points="119 16 109 20 109 16  99 20  99 12 109 16 109 12"/>
<rect x="40" y="8" height="16" width="47" rx="8"/>
<text x="46" y="20" class="terminal">[0-9]</text>

<path d="
  M 28 16 h 12
  m 47 0 h 12
  m -12 0 q 12 0 12 12 q 0 12 -12 12
  h -48 q -12 0 -12 -12 q 0 -12 12 -12
"/>

</svg>
