<?xml version="1.0" encoding="utf-8"?>
<svg width="289" height="104" xmlns="http://www.w3.org/2000/svg">

<style type="text/css">
  @namespace "http://www.w3.org/2000/svg";
  path, rect, polygon {
    stroke: black;
    stroke-width: 1;
  }

  path {
    fill: none;
  }

  rect, polygon {
    fill: #ddd;
  }

  text.nonterminal {
    font-family: "Myriad Pro";
    font-size: 12px;
  }

  text.terminal {
    font-family: "Letter Gothic Std";
    font-weight: bold;
    font-size: 12px;
  }
</style>

<polygon points=" 28 16  18 12  18 16   8 12   8 20  18 16  18 20"/>
<polygon points="281 16 271 20 271 16 261 20 261 12 271 16 271 12"/>

<rect x="64" y="8" height="16" width="47" rx="8"/>
<text x="70" y="20" class="terminal">[0-9]</text>

<rect x="135" y="8" height="16" width="19" rx="8"/>
<text x="141" y="20" class="terminal">.</text>

<rect x="178" y="32" height="16" width="47" rx="8"/>
<text x="184" y="44" class="terminal">[0-9]</text>

<rect x="52" y="56" height="16" width="19" rx="8"/>
<text x="58" y="68" class="terminal">e</text>

<rect x="52" y="80" height="16" width="26" rx="8"/>
<text x="58" y="92" class="terminal">pi</text>

<path d="
  M 28 16 h 36
  m 47 0 h 24
  m 19 0 h 24
  h 47 h 36
  M 111 16 q 12 0 12 12
    q 0 12 -12 12 h -47 q -12 0 -12 -12 q 0 -12 12 -12
  M 225 16 q 12 0 12 12
    q 0 12 -12 12 m -47 0 q -12 0 -12 -12 q 0 -12 12 -12
  M 28 16 q 12 0 12 12 v 24 q 0 12 12 12
  m 19 0 h 166 q 12 0 12 -12 v -24 q 0 -12 12 -12
  M 40 52 v 24 q 0 12 12 12
  m 26 0 h 159 q 12 0 12 -12 v -24
"/>

</svg>
