<?xml version="1.0" encoding="utf-8"?>
<svg width="273" height="56" xmlns="http://www.w3.org/2000/svg">

<style type="text/css">
  @namespace "http://www.w3.org/2000/svg";
  path, rect, polygon {
    stroke: black;
    stroke-width: 1;
  }

  path {
    fill: none;
  }

  rect, polygon {
    fill: #ddd;
  }

  text.nonterminal {
    font-family: "Myriad Pro";
    font-size: 12px;
  }

  text.terminal {
    font-family: "Letter Gothic Std";
    font-weight: bold;
    font-size: 12px;
  }
</style>

<polygon points=" 28 16  18 12  18 16   8 12   8 20  18 16  18 20"/>
<polygon points="265 16 255 20 255 16 245 20 245 12 255 16 255 12"/>
<!--polygon points="145 16 135 12 135 16 125 12 125 20 135 16 135 20"/-->

<rect x="172" y="8" height="16" width="49"/>
<text x="178" y="20" class="nonterminal">integer</text>

<rect x="172" y="32" height="16" width="31"/>
<text x="178" y="44" class="nonterminal">real</text>

<rect x="52" y="32" height="16" width="19" rx="8"/>
<text x="58" y="44" class="terminal">-</text>

<rect x="83" y="32" height="16" width="41"/>
<text x="89" y="44" class="nonterminal">space</text>

<path d="
  M 28 16 h 144
  m 49 0 h 24
  M 28 16 q 12 0 12 12 q 0 12 12 12
  m 19 0  h 12 m 41  0 q 12 0 12 -12 q 0 -12 12 -12

   q 12 0 12 12 q 0 12 12 12
  m 31 0  h 18 q 12 0 12 -12 q 0 -12 12 -12

"/>

</svg>
